<?xml version="1.0" encoding="utf-8" standalone="no"?>
<!DOCTYPE svg PUBLIC "-//W3C//DTD SVG 1.1//EN"
  "http://www.w3.org/Graphics/SVG/1.1/DTD/svg11.dtd">
<svg xmlns:xlink="http://www.w3.org/1999/xlink" width="720pt" height="432pt" viewBox="0 0 720 432" xmlns="http://www.w3.org/2000/svg" version="1.1">
 <metadata>
  <rdf:RDF xmlns:dc="http://purl.org/dc/elements/1.1/" xmlns:cc="http://creativecommons.org/ns#" xmlns:rdf="http://www.w3.org/1999/02/22-rdf-syntax-ns#">
   <cc:Work>
    <dc:type rdf:resource="http://purl.org/dc/dcmitype/StillImage"/>
    <dc:date>2025-10-03T05:11:43.865981</dc:date>
    <dc:format>image/svg+xml</dc:format>
    <dc:creator>
     <cc:Agent>
      <dc:title>Matplotlib v3.10.6, https://matplotlib.org/</dc:title>
     </cc:Agent>
    </dc:creator>
   </cc:Work>
  </rdf:RDF>
 </metadata>
 <defs>
  <style type="text/css">*{stroke-linejoin: round; stroke-linecap: butt}</style>
 </defs>
 <g id="figure_1">
  <g id="patch_1">
   <path d="M 0 432 
L 720 432 
L 720 0 
L 0 0 
z
" style="fill: #ffffff"/>
  </g>
  <g id="axes_1">
   <g id="patch_2">
    <path d="M 47.72 390.04 
L 699.705 390.04 
L 699.705 26.88 
L 47.72 26.88 
z
" style="fill: #ffffff"/>
   </g>
   <g id="PathCollection_1">
    <defs>
     <path id="C0_0_5b86262d31" d="M 0 3.872983 
C 1.027127 3.872983 2.012324 3.464901 2.738613 2.738613 
C 3.464901 2.012324 3.872983 1.027127 3.872983 -0 
C 3.872983 -1.027127 3.464901 -2.012324 2.738613 -2.738613 
C 2.012324 -3.464901 1.027127 -3.872983 0 -3.872983 
C -1.027127 -3.872983 -2.012324 -3.464901 -2.738613 -2.738613 
C -3.464901 -2.012324 -3.872983 -1.027127 -3.872983 0 
C -3.872983 1.027127 -3.464901 2.012324 -2.738613 2.738613 
C -2.012324 3.464901 -1.027127 3.872983 0 3.872983 
z
"/>
    </defs>
    <g clip-path="url(#pc67dd9abd8)">
     <use xlink:href="#C0_0_5b86262d31" x="699.705" y="43.387273" style="fill: #ff8c00; fill-opacity: 0.85; stroke: #ffffff; stroke-opacity: 0.85; stroke-width: 0.5"/>
    </g>
    <g clip-path="url(#pc67dd9abd8)">
     <use xlink:href="#C0_0_5b86262d31" x="395.445333" y="364.017758" style="fill: #ff8c00; fill-opacity: 0.85; stroke: #ffffff; stroke-opacity: 0.85; stroke-width: 0.5"/>
    </g>
    <g clip-path="url(#pc67dd9abd8)">
     <use xlink:href="#C0_0_5b86262d31" x="178.117" y="371.773657" style="fill: #ff8c00; fill-opacity: 0.85; stroke: #ffffff; stroke-opacity: 0.85; stroke-width: 0.5"/>
    </g>
    <g clip-path="url(#pc67dd9abd8)">
     <use xlink:href="#C0_0_5b86262d31" x="699.705" y="310.685954" style="fill: #ff8c00; fill-opacity: 0.85; stroke: #ffffff; stroke-opacity: 0.85; stroke-width: 0.5"/>
    </g>
    <g clip-path="url(#pc67dd9abd8)">
     <use xlink:href="#C0_0_5b86262d31" x="656.239333" y="305.568659" style="fill: #ff8c00; fill-opacity: 0.85; stroke: #ffffff; stroke-opacity: 0.85; stroke-width: 0.5"/>
    </g>
    <g clip-path="url(#pc67dd9abd8)">
     <use xlink:href="#C0_0_5b86262d31" x="351.979667" y="373.45277" style="fill: #0015ff; fill-opacity: 0.85; stroke: #ffffff; stroke-opacity: 0.85; stroke-width: 0.5"/>
    </g>
    <g clip-path="url(#pc67dd9abd8)">
     <use xlink:href="#C0_0_5b86262d31" x="351.979667" y="373.292854" style="fill: #0015ff; fill-opacity: 0.85; stroke: #ffffff; stroke-opacity: 0.85; stroke-width: 0.5"/>
    </g>
    <g clip-path="url(#pc67dd9abd8)">
     <use xlink:href="#C0_0_5b86262d31" x="699.705" y="372.093488" style="fill: #0015ff; fill-opacity: 0.85; stroke: #ffffff; stroke-opacity: 0.85; stroke-width: 0.5"/>
    </g>
    <g clip-path="url(#pc67dd9abd8)">
     <use xlink:href="#C0_0_5b86262d31" x="134.651333" y="371.293911" style="fill-opacity: 0.85; stroke: #ffffff; stroke-opacity: 0.85; stroke-width: 0.5"/>
    </g>
    <g clip-path="url(#pc67dd9abd8)">
     <use xlink:href="#C0_0_5b86262d31" x="438.911" y="297.333013" style="fill-opacity: 0.85; stroke: #ffffff; stroke-opacity: 0.85; stroke-width: 0.5"/>
    </g>
    <g clip-path="url(#pc67dd9abd8)">
     <use xlink:href="#C0_0_5b86262d31" x="438.911" y="371.613742" style="fill-opacity: 0.85; stroke: #ffffff; stroke-opacity: 0.85; stroke-width: 0.5"/>
    </g>
    <g clip-path="url(#pc67dd9abd8)">
     <use xlink:href="#C0_0_5b86262d31" x="265.048333" y="373.372812" style="fill-opacity: 0.85; stroke: #ffffff; stroke-opacity: 0.85; stroke-width: 0.5"/>
    </g>
    <g clip-path="url(#pc67dd9abd8)">
     <use xlink:href="#C0_0_5b86262d31" x="525.842333" y="362.338646" style="fill-opacity: 0.85; stroke: #ffffff; stroke-opacity: 0.85; stroke-width: 0.5"/>
    </g>
    <g clip-path="url(#pc67dd9abd8)">
     <use xlink:href="#C0_0_5b86262d31" x="308.514" y="373.052981" style="fill-opacity: 0.85; stroke: #ffffff; stroke-opacity: 0.85; stroke-width: 0.5"/>
    </g>
    <g clip-path="url(#pc67dd9abd8)">
     <use xlink:href="#C0_0_5b86262d31" x="525.842333" y="359.38021" style="fill-opacity: 0.85; stroke: #ffffff; stroke-opacity: 0.85; stroke-width: 0.5"/>
    </g>
    <g clip-path="url(#pc67dd9abd8)">
     <use xlink:href="#C0_0_5b86262d31" x="525.842333" y="364.897293" style="fill-opacity: 0.85; stroke: #ffffff; stroke-opacity: 0.85; stroke-width: 0.5"/>
    </g>
    <g clip-path="url(#pc67dd9abd8)">
     <use xlink:href="#C0_0_5b86262d31" x="699.705" y="325.877922" style="fill-opacity: 0.85; stroke: #ffffff; stroke-opacity: 0.85; stroke-width: 0.5"/>
    </g>
    <g clip-path="url(#pc67dd9abd8)">
     <use xlink:href="#C0_0_5b86262d31" x="395.445333" y="372.01353" style="fill-opacity: 0.85; stroke: #ffffff; stroke-opacity: 0.85; stroke-width: 0.5"/>
    </g>
    <g clip-path="url(#pc67dd9abd8)">
     <use xlink:href="#C0_0_5b86262d31" x="395.445333" y="373.532727" style="fill-opacity: 0.85; stroke: #ffffff; stroke-opacity: 0.85; stroke-width: 0.5"/>
    </g>
    <g clip-path="url(#pc67dd9abd8)">
     <use xlink:href="#C0_0_5b86262d31" x="438.911" y="364.417546" style="fill-opacity: 0.85; stroke: #ffffff; stroke-opacity: 0.85; stroke-width: 0.5"/>
    </g>
   </g>
   <g id="matplotlib.axis_1">
    <g id="xtick_1">
     <g id="line2d_1">
      <path d="M 47.72 390.04 
L 47.72 26.88 
" clip-path="url(#pc67dd9abd8)" style="fill: none; stroke-dasharray: 2.96,1.28; stroke-dashoffset: 0; stroke: #b0b0b0; stroke-opacity: 0.3; stroke-width: 0.8"/>
     </g>
     <g id="line2d_2">
      <defs>
       <path id="mdf30dee992" d="M 0 0 
L 0 3.5 
" style="stroke: #000000; stroke-width: 0.8"/>
      </defs>
      <g>
       <use xlink:href="#mdf30dee992" x="47.72" y="390.04" style="stroke: #000000; stroke-width: 0.8"/>
      </g>
     </g>
     <g id="text_1">
      <!-- 0 -->
      <g transform="translate(44.53875 404.638438) scale(0.1 -0.1)">
       <defs>
        <path id="DejaVuSans-30" d="M 2034 4250 
Q 1547 4250 1301 3770 
Q 1056 3291 1056 2328 
Q 1056 1369 1301 889 
Q 1547 409 2034 409 
Q 2525 409 2770 889 
Q 3016 1369 3016 2328 
Q 3016 3291 2770 3770 
Q 2525 4250 2034 4250 
z
M 2034 4750 
Q 2819 4750 3233 4129 
Q 3647 3509 3647 2328 
Q 3647 1150 3233 529 
Q 2819 -91 2034 -91 
Q 1250 -91 836 529 
Q 422 1150 422 2328 
Q 422 3509 836 4129 
Q 1250 4750 2034 4750 
z
" transform="scale(0.015625)"/>
       </defs>
       <use xlink:href="#DejaVuSans-30"/>
      </g>
     </g>
    </g>
    <g id="xtick_2">
     <g id="line2d_3">
      <path d="M 178.117 390.04 
L 178.117 26.88 
" clip-path="url(#pc67dd9abd8)" style="fill: none; stroke-dasharray: 2.96,1.28; stroke-dashoffset: 0; stroke: #b0b0b0; stroke-opacity: 0.3; stroke-width: 0.8"/>
     </g>
     <g id="line2d_4">
      <g>
       <use xlink:href="#mdf30dee992" x="178.117" y="390.04" style="stroke: #000000; stroke-width: 0.8"/>
      </g>
     </g>
     <g id="text_2">
      <!-- 20 -->
      <g transform="translate(171.7545 404.638438) scale(0.1 -0.1)">
       <defs>
        <path id="DejaVuSans-32" d="M 1228 531 
L 3431 531 
L 3431 0 
L 469 0 
L 469 531 
Q 828 903 1448 1529 
Q 2069 2156 2228 2338 
Q 2531 2678 2651 2914 
Q 2772 3150 2772 3378 
Q 2772 3750 2511 3984 
Q 2250 4219 1831 4219 
Q 1534 4219 1204 4116 
Q 875 4013 500 3803 
L 500 4441 
Q 881 4594 1212 4672 
Q 1544 4750 1819 4750 
Q 2544 4750 2975 4387 
Q 3406 4025 3406 3419 
Q 3406 3131 3298 2873 
Q 3191 2616 2906 2266 
Q 2828 2175 2409 1742 
Q 1991 1309 1228 531 
z
" transform="scale(0.015625)"/>
       </defs>
       <use xlink:href="#DejaVuSans-32"/>
       <use xlink:href="#DejaVuSans-30" transform="translate(63.623047 0)"/>
      </g>
     </g>
    </g>
    <g id="xtick_3">
     <g id="line2d_5">
      <path d="M 308.514 390.04 
L 308.514 26.88 
" clip-path="url(#pc67dd9abd8)" style="fill: none; stroke-dasharray: 2.96,1.28; stroke-dashoffset: 0; stroke: #b0b0b0; stroke-opacity: 0.3; stroke-width: 0.8"/>
     </g>
     <g id="line2d_6">
      <g>
       <use xlink:href="#mdf30dee992" x="308.514" y="390.04" style="stroke: #000000; stroke-width: 0.8"/>
      </g>
     </g>
     <g id="text_3">
      <!-- 40 -->
      <g transform="translate(302.1515 404.638438) scale(0.1 -0.1)">
       <defs>
        <path id="DejaVuSans-34" d="M 2419 4116 
L 825 1625 
L 2419 1625 
L 2419 4116 
z
M 2253 4666 
L 3047 4666 
L 3047 1625 
L 3713 1625 
L 3713 1100 
L 3047 1100 
L 3047 0 
L 2419 0 
L 2419 1100 
L 313 1100 
L 313 1709 
L 2253 4666 
z
" transform="scale(0.015625)"/>
       </defs>
       <use xlink:href="#DejaVuSans-34"/>
       <use xlink:href="#DejaVuSans-30" transform="translate(63.623047 0)"/>
      </g>
     </g>
    </g>
    <g id="xtick_4">
     <g id="line2d_7">
      <path d="M 438.911 390.04 
L 438.911 26.88 
" clip-path="url(#pc67dd9abd8)" style="fill: none; stroke-dasharray: 2.96,1.28; stroke-dashoffset: 0; stroke: #b0b0b0; stroke-opacity: 0.3; stroke-width: 0.8"/>
     </g>
     <g id="line2d_8">
      <g>
       <use xlink:href="#mdf30dee992" x="438.911" y="390.04" style="stroke: #000000; stroke-width: 0.8"/>
      </g>
     </g>
     <g id="text_4">
      <!-- 60 -->
      <g transform="translate(432.5485 404.638438) scale(0.1 -0.1)">
       <defs>
        <path id="DejaVuSans-36" d="M 2113 2584 
Q 1688 2584 1439 2293 
Q 1191 2003 1191 1497 
Q 1191 994 1439 701 
Q 1688 409 2113 409 
Q 2538 409 2786 701 
Q 3034 994 3034 1497 
Q 3034 2003 2786 2293 
Q 2538 2584 2113 2584 
z
M 3366 4563 
L 3366 3988 
Q 3128 4100 2886 4159 
Q 2644 4219 2406 4219 
Q 1781 4219 1451 3797 
Q 1122 3375 1075 2522 
Q 1259 2794 1537 2939 
Q 1816 3084 2150 3084 
Q 2853 3084 3261 2657 
Q 3669 2231 3669 1497 
Q 3669 778 3244 343 
Q 2819 -91 2113 -91 
Q 1303 -91 875 529 
Q 447 1150 447 2328 
Q 447 3434 972 4092 
Q 1497 4750 2381 4750 
Q 2619 4750 2861 4703 
Q 3103 4656 3366 4563 
z
" transform="scale(0.015625)"/>
       </defs>
       <use xlink:href="#DejaVuSans-36"/>
       <use xlink:href="#DejaVuSans-30" transform="translate(63.623047 0)"/>
      </g>
     </g>
    </g>
    <g id="xtick_5">
     <g id="line2d_9">
      <path d="M 569.308 390.04 
L 569.308 26.88 
" clip-path="url(#pc67dd9abd8)" style="fill: none; stroke-dasharray: 2.96,1.28; stroke-dashoffset: 0; stroke: #b0b0b0; stroke-opacity: 0.3; stroke-width: 0.8"/>
     </g>
     <g id="line2d_10">
      <g>
       <use xlink:href="#mdf30dee992" x="569.308" y="390.04" style="stroke: #000000; stroke-width: 0.8"/>
      </g>
     </g>
     <g id="text_5">
      <!-- 80 -->
      <g transform="translate(562.9455 404.638438) scale(0.1 -0.1)">
       <defs>
        <path id="DejaVuSans-38" d="M 2034 2216 
Q 1584 2216 1326 1975 
Q 1069 1734 1069 1313 
Q 1069 891 1326 650 
Q 1584 409 2034 409 
Q 2484 409 2743 651 
Q 3003 894 3003 1313 
Q 3003 1734 2745 1975 
Q 2488 2216 2034 2216 
z
M 1403 2484 
Q 997 2584 770 2862 
Q 544 3141 544 3541 
Q 544 4100 942 4425 
Q 1341 4750 2034 4750 
Q 2731 4750 3128 4425 
Q 3525 4100 3525 3541 
Q 3525 3141 3298 2862 
Q 3072 2584 2669 2484 
Q 3125 2378 3379 2068 
Q 3634 1759 3634 1313 
Q 3634 634 3220 271 
Q 2806 -91 2034 -91 
Q 1263 -91 848 271 
Q 434 634 434 1313 
Q 434 1759 690 2068 
Q 947 2378 1403 2484 
z
M 1172 3481 
Q 1172 3119 1398 2916 
Q 1625 2713 2034 2713 
Q 2441 2713 2670 2916 
Q 2900 3119 2900 3481 
Q 2900 3844 2670 4047 
Q 2441 4250 2034 4250 
Q 1625 4250 1398 4047 
Q 1172 3844 1172 3481 
z
" transform="scale(0.015625)"/>
       </defs>
       <use xlink:href="#DejaVuSans-38"/>
       <use xlink:href="#DejaVuSans-30" transform="translate(63.623047 0)"/>
      </g>
     </g>
    </g>
    <g id="xtick_6">
     <g id="line2d_11">
      <path d="M 699.705 390.04 
L 699.705 26.88 
" clip-path="url(#pc67dd9abd8)" style="fill: none; stroke-dasharray: 2.96,1.28; stroke-dashoffset: 0; stroke: #b0b0b0; stroke-opacity: 0.3; stroke-width: 0.8"/>
     </g>
     <g id="line2d_12">
      <g>
       <use xlink:href="#mdf30dee992" x="699.705" y="390.04" style="stroke: #000000; stroke-width: 0.8"/>
      </g>
     </g>
     <g id="text_6">
      <!-- 100 -->
      <g transform="translate(690.16125 404.638438) scale(0.1 -0.1)">
       <defs>
        <path id="DejaVuSans-31" d="M 794 531 
L 1825 531 
L 1825 4091 
L 703 3866 
L 703 4441 
L 1819 4666 
L 2450 4666 
L 2450 531 
L 3481 531 
L 3481 0 
L 794 0 
L 794 531 
z
" transform="scale(0.015625)"/>
       </defs>
       <use xlink:href="#DejaVuSans-31"/>
       <use xlink:href="#DejaVuSans-30" transform="translate(63.623047 0)"/>
       <use xlink:href="#DejaVuSans-30" transform="translate(127.246094 0)"/>
      </g>
     </g>
    </g>
    <g id="text_7">
     <!-- Accuracy (%) -->
     <g transform="translate(340.642969 418.316562) scale(0.1 -0.1)">
      <defs>
       <path id="DejaVuSans-41" d="M 2188 4044 
L 1331 1722 
L 3047 1722 
L 2188 4044 
z
M 1831 4666 
L 2547 4666 
L 4325 0 
L 3669 0 
L 3244 1197 
L 1141 1197 
L 716 0 
L 50 0 
L 1831 4666 
z
" transform="scale(0.015625)"/>
       <path id="DejaVuSans-63" d="M 3122 3366 
L 3122 2828 
Q 2878 2963 2633 3030 
Q 2388 3097 2138 3097 
Q 1578 3097 1268 2742 
Q 959 2388 959 1747 
Q 959 1106 1268 751 
Q 1578 397 2138 397 
Q 2388 397 2633 464 
Q 2878 531 3122 666 
L 3122 134 
Q 2881 22 2623 -34 
Q 2366 -91 2075 -91 
Q 1284 -91 818 406 
Q 353 903 353 1747 
Q 353 2603 823 3093 
Q 1294 3584 2113 3584 
Q 2378 3584 2631 3529 
Q 2884 3475 3122 3366 
z
" transform="scale(0.015625)"/>
       <path id="DejaVuSans-75" d="M 544 1381 
L 544 3500 
L 1119 3500 
L 1119 1403 
Q 1119 906 1312 657 
Q 1506 409 1894 409 
Q 2359 409 2629 706 
Q 2900 1003 2900 1516 
L 2900 3500 
L 3475 3500 
L 3475 0 
L 2900 0 
L 2900 538 
Q 2691 219 2414 64 
Q 2138 -91 1772 -91 
Q 1169 -91 856 284 
Q 544 659 544 1381 
z
M 1991 3584 
L 1991 3584 
z
" transform="scale(0.015625)"/>
       <path id="DejaVuSans-72" d="M 2631 2963 
Q 2534 3019 2420 3045 
Q 2306 3072 2169 3072 
Q 1681 3072 1420 2755 
Q 1159 2438 1159 1844 
L 1159 0 
L 581 0 
L 581 3500 
L 1159 3500 
L 1159 2956 
Q 1341 3275 1631 3429 
Q 1922 3584 2338 3584 
Q 2397 3584 2469 3576 
Q 2541 3569 2628 3553 
L 2631 2963 
z
" transform="scale(0.015625)"/>
       <path id="DejaVuSans-61" d="M 2194 1759 
Q 1497 1759 1228 1600 
Q 959 1441 959 1056 
Q 959 750 1161 570 
Q 1363 391 1709 391 
Q 2188 391 2477 730 
Q 2766 1069 2766 1631 
L 2766 1759 
L 2194 1759 
z
M 3341 1997 
L 3341 0 
L 2766 0 
L 2766 531 
Q 2569 213 2275 61 
Q 1981 -91 1556 -91 
Q 1019 -91 701 211 
Q 384 513 384 1019 
Q 384 1609 779 1909 
Q 1175 2209 1959 2209 
L 2766 2209 
L 2766 2266 
Q 2766 2663 2505 2880 
Q 2244 3097 1772 3097 
Q 1472 3097 1187 3025 
Q 903 2953 641 2809 
L 641 3341 
Q 956 3463 1253 3523 
Q 1550 3584 1831 3584 
Q 2591 3584 2966 3190 
Q 3341 2797 3341 1997 
z
" transform="scale(0.015625)"/>
       <path id="DejaVuSans-79" d="M 2059 -325 
Q 1816 -950 1584 -1140 
Q 1353 -1331 966 -1331 
L 506 -1331 
L 506 -850 
L 844 -850 
Q 1081 -850 1212 -737 
Q 1344 -625 1503 -206 
L 1606 56 
L 191 3500 
L 800 3500 
L 1894 763 
L 2988 3500 
L 3597 3500 
L 2059 -325 
z
" transform="scale(0.015625)"/>
       <path id="DejaVuSans-20" transform="scale(0.015625)"/>
       <path id="DejaVuSans-28" d="M 1984 4856 
Q 1566 4138 1362 3434 
Q 1159 2731 1159 2009 
Q 1159 1288 1364 580 
Q 1569 -128 1984 -844 
L 1484 -844 
Q 1016 -109 783 600 
Q 550 1309 550 2009 
Q 550 2706 781 3412 
Q 1013 4119 1484 4856 
L 1984 4856 
z
" transform="scale(0.015625)"/>
       <path id="DejaVuSans-25" d="M 4653 2053 
Q 4381 2053 4226 1822 
Q 4072 1591 4072 1178 
Q 4072 772 4226 539 
Q 4381 306 4653 306 
Q 4919 306 5073 539 
Q 5228 772 5228 1178 
Q 5228 1588 5073 1820 
Q 4919 2053 4653 2053 
z
M 4653 2450 
Q 5147 2450 5437 2106 
Q 5728 1763 5728 1178 
Q 5728 594 5436 251 
Q 5144 -91 4653 -91 
Q 4153 -91 3862 251 
Q 3572 594 3572 1178 
Q 3572 1766 3864 2108 
Q 4156 2450 4653 2450 
z
M 1428 4353 
Q 1159 4353 1004 4120 
Q 850 3888 850 3481 
Q 850 3069 1003 2837 
Q 1156 2606 1428 2606 
Q 1700 2606 1854 2837 
Q 2009 3069 2009 3481 
Q 2009 3884 1853 4118 
Q 1697 4353 1428 4353 
z
M 4250 4750 
L 4750 4750 
L 1831 -91 
L 1331 -91 
L 4250 4750 
z
M 1428 4750 
Q 1922 4750 2215 4408 
Q 2509 4066 2509 3481 
Q 2509 2891 2217 2550 
Q 1925 2209 1428 2209 
Q 931 2209 642 2551 
Q 353 2894 353 3481 
Q 353 4063 643 4406 
Q 934 4750 1428 4750 
z
" transform="scale(0.015625)"/>
       <path id="DejaVuSans-29" d="M 513 4856 
L 1013 4856 
Q 1481 4119 1714 3412 
Q 1947 2706 1947 2009 
Q 1947 1309 1714 600 
Q 1481 -109 1013 -844 
L 513 -844 
Q 928 -128 1133 580 
Q 1338 1288 1338 2009 
Q 1338 2731 1133 3434 
Q 928 4138 513 4856 
z
" transform="scale(0.015625)"/>
      </defs>
      <use xlink:href="#DejaVuSans-41"/>
      <use xlink:href="#DejaVuSans-63" transform="translate(66.658203 0)"/>
      <use xlink:href="#DejaVuSans-63" transform="translate(121.638672 0)"/>
      <use xlink:href="#DejaVuSans-75" transform="translate(176.619141 0)"/>
      <use xlink:href="#DejaVuSans-72" transform="translate(239.998047 0)"/>
      <use xlink:href="#DejaVuSans-61" transform="translate(281.111328 0)"/>
      <use xlink:href="#DejaVuSans-63" transform="translate(342.390625 0)"/>
      <use xlink:href="#DejaVuSans-79" transform="translate(397.371094 0)"/>
      <use xlink:href="#DejaVuSans-20" transform="translate(456.550781 0)"/>
      <use xlink:href="#DejaVuSans-28" transform="translate(488.337891 0)"/>
      <use xlink:href="#DejaVuSans-25" transform="translate(527.351562 0)"/>
      <use xlink:href="#DejaVuSans-29" transform="translate(622.371094 0)"/>
     </g>
    </g>
   </g>
   <g id="matplotlib.axis_2">
    <g id="ytick_1">
     <g id="line2d_13">
      <path d="M 47.72 373.932516 
L 699.705 373.932516 
" clip-path="url(#pc67dd9abd8)" style="fill: none; stroke-dasharray: 2.96,1.28; stroke-dashoffset: 0; stroke: #b0b0b0; stroke-opacity: 0.3; stroke-width: 0.8"/>
     </g>
     <g id="line2d_14">
      <defs>
       <path id="md022738c68" d="M 0 0 
L -3.5 0 
" style="stroke: #000000; stroke-width: 0.8"/>
      </defs>
      <g>
       <use xlink:href="#md022738c68" x="47.72" y="373.932516" style="stroke: #000000; stroke-width: 0.8"/>
      </g>
     </g>
     <g id="text_8">
      <!-- 0.0 -->
      <g transform="translate(24.816875 377.731735) scale(0.1 -0.1)">
       <defs>
        <path id="DejaVuSans-2e" d="M 684 794 
L 1344 794 
L 1344 0 
L 684 0 
L 684 794 
z
" transform="scale(0.015625)"/>
       </defs>
       <use xlink:href="#DejaVuSans-30"/>
       <use xlink:href="#DejaVuSans-2e" transform="translate(63.623047 0)"/>
       <use xlink:href="#DejaVuSans-30" transform="translate(95.410156 0)"/>
      </g>
     </g>
    </g>
    <g id="ytick_2">
     <g id="line2d_15">
      <path d="M 47.72 293.974789 
L 699.705 293.974789 
" clip-path="url(#pc67dd9abd8)" style="fill: none; stroke-dasharray: 2.96,1.28; stroke-dashoffset: 0; stroke: #b0b0b0; stroke-opacity: 0.3; stroke-width: 0.8"/>
     </g>
     <g id="line2d_16">
      <g>
       <use xlink:href="#md022738c68" x="47.72" y="293.974789" style="stroke: #000000; stroke-width: 0.8"/>
      </g>
     </g>
     <g id="text_9">
      <!-- 0.1 -->
      <g transform="translate(24.816875 297.774008) scale(0.1 -0.1)">
       <use xlink:href="#DejaVuSans-30"/>
       <use xlink:href="#DejaVuSans-2e" transform="translate(63.623047 0)"/>
       <use xlink:href="#DejaVuSans-31" transform="translate(95.410156 0)"/>
      </g>
     </g>
    </g>
    <g id="ytick_3">
     <g id="line2d_17">
      <path d="M 47.72 214.017062 
L 699.705 214.017062 
" clip-path="url(#pc67dd9abd8)" style="fill: none; stroke-dasharray: 2.96,1.28; stroke-dashoffset: 0; stroke: #b0b0b0; stroke-opacity: 0.3; stroke-width: 0.8"/>
     </g>
     <g id="line2d_18">
      <g>
       <use xlink:href="#md022738c68" x="47.72" y="214.017062" style="stroke: #000000; stroke-width: 0.8"/>
      </g>
     </g>
     <g id="text_10">
      <!-- 0.2 -->
      <g transform="translate(24.816875 217.816281) scale(0.1 -0.1)">
       <use xlink:href="#DejaVuSans-30"/>
       <use xlink:href="#DejaVuSans-2e" transform="translate(63.623047 0)"/>
       <use xlink:href="#DejaVuSans-32" transform="translate(95.410156 0)"/>
      </g>
     </g>
    </g>
    <g id="ytick_4">
     <g id="line2d_19">
      <path d="M 47.72 134.059335 
L 699.705 134.059335 
" clip-path="url(#pc67dd9abd8)" style="fill: none; stroke-dasharray: 2.96,1.28; stroke-dashoffset: 0; stroke: #b0b0b0; stroke-opacity: 0.3; stroke-width: 0.8"/>
     </g>
     <g id="line2d_20">
      <g>
       <use xlink:href="#md022738c68" x="47.72" y="134.059335" style="stroke: #000000; stroke-width: 0.8"/>
      </g>
     </g>
     <g id="text_11">
      <!-- 0.3 -->
      <g transform="translate(24.816875 137.858554) scale(0.1 -0.1)">
       <defs>
        <path id="DejaVuSans-33" d="M 2597 2516 
Q 3050 2419 3304 2112 
Q 3559 1806 3559 1356 
Q 3559 666 3084 287 
Q 2609 -91 1734 -91 
Q 1441 -91 1130 -33 
Q 819 25 488 141 
L 488 750 
Q 750 597 1062 519 
Q 1375 441 1716 441 
Q 2309 441 2620 675 
Q 2931 909 2931 1356 
Q 2931 1769 2642 2001 
Q 2353 2234 1838 2234 
L 1294 2234 
L 1294 2753 
L 1863 2753 
Q 2328 2753 2575 2939 
Q 2822 3125 2822 3475 
Q 2822 3834 2567 4026 
Q 2313 4219 1838 4219 
Q 1578 4219 1281 4162 
Q 984 4106 628 3988 
L 628 4550 
Q 988 4650 1302 4700 
Q 1616 4750 1894 4750 
Q 2613 4750 3031 4423 
Q 3450 4097 3450 3541 
Q 3450 3153 3228 2886 
Q 3006 2619 2597 2516 
z
" transform="scale(0.015625)"/>
       </defs>
       <use xlink:href="#DejaVuSans-30"/>
       <use xlink:href="#DejaVuSans-2e" transform="translate(63.623047 0)"/>
       <use xlink:href="#DejaVuSans-33" transform="translate(95.410156 0)"/>
      </g>
     </g>
    </g>
    <g id="ytick_5">
     <g id="line2d_21">
      <path d="M 47.72 54.101608 
L 699.705 54.101608 
" clip-path="url(#pc67dd9abd8)" style="fill: none; stroke-dasharray: 2.96,1.28; stroke-dashoffset: 0; stroke: #b0b0b0; stroke-opacity: 0.3; stroke-width: 0.8"/>
     </g>
     <g id="line2d_22">
      <g>
       <use xlink:href="#md022738c68" x="47.72" y="54.101608" style="stroke: #000000; stroke-width: 0.8"/>
      </g>
     </g>
     <g id="text_12">
      <!-- 0.4 -->
      <g transform="translate(24.816875 57.900827) scale(0.1 -0.1)">
       <use xlink:href="#DejaVuSans-30"/>
       <use xlink:href="#DejaVuSans-2e" transform="translate(63.623047 0)"/>
       <use xlink:href="#DejaVuSans-34" transform="translate(95.410156 0)"/>
      </g>
     </g>
    </g>
    <g id="text_13">
     <!-- TotalPrice -->
     <g transform="translate(18.737188 232.334219) rotate(-90) scale(0.1 -0.1)">
      <defs>
       <path id="DejaVuSans-54" d="M -19 4666 
L 3928 4666 
L 3928 4134 
L 2272 4134 
L 2272 0 
L 1638 0 
L 1638 4134 
L -19 4134 
L -19 4666 
z
" transform="scale(0.015625)"/>
       <path id="DejaVuSans-6f" d="M 1959 3097 
Q 1497 3097 1228 2736 
Q 959 2375 959 1747 
Q 959 1119 1226 758 
Q 1494 397 1959 397 
Q 2419 397 2687 759 
Q 2956 1122 2956 1747 
Q 2956 2369 2687 2733 
Q 2419 3097 1959 3097 
z
M 1959 3584 
Q 2709 3584 3137 3096 
Q 3566 2609 3566 1747 
Q 3566 888 3137 398 
Q 2709 -91 1959 -91 
Q 1206 -91 779 398 
Q 353 888 353 1747 
Q 353 2609 779 3096 
Q 1206 3584 1959 3584 
z
" transform="scale(0.015625)"/>
       <path id="DejaVuSans-74" d="M 1172 4494 
L 1172 3500 
L 2356 3500 
L 2356 3053 
L 1172 3053 
L 1172 1153 
Q 1172 725 1289 603 
Q 1406 481 1766 481 
L 2356 481 
L 2356 0 
L 1766 0 
Q 1100 0 847 248 
Q 594 497 594 1153 
L 594 3053 
L 172 3053 
L 172 3500 
L 594 3500 
L 594 4494 
L 1172 4494 
z
" transform="scale(0.015625)"/>
       <path id="DejaVuSans-6c" d="M 603 4863 
L 1178 4863 
L 1178 0 
L 603 0 
L 603 4863 
z
" transform="scale(0.015625)"/>
       <path id="DejaVuSans-50" d="M 1259 4147 
L 1259 2394 
L 2053 2394 
Q 2494 2394 2734 2622 
Q 2975 2850 2975 3272 
Q 2975 3691 2734 3919 
Q 2494 4147 2053 4147 
L 1259 4147 
z
M 628 4666 
L 2053 4666 
Q 2838 4666 3239 4311 
Q 3641 3956 3641 3272 
Q 3641 2581 3239 2228 
Q 2838 1875 2053 1875 
L 1259 1875 
L 1259 0 
L 628 0 
L 628 4666 
z
" transform="scale(0.015625)"/>
       <path id="DejaVuSans-69" d="M 603 3500 
L 1178 3500 
L 1178 0 
L 603 0 
L 603 3500 
z
M 603 4863 
L 1178 4863 
L 1178 4134 
L 603 4134 
L 603 4863 
z
" transform="scale(0.015625)"/>
       <path id="DejaVuSans-65" d="M 3597 1894 
L 3597 1613 
L 953 1613 
Q 991 1019 1311 708 
Q 1631 397 2203 397 
Q 2534 397 2845 478 
Q 3156 559 3463 722 
L 3463 178 
Q 3153 47 2828 -22 
Q 2503 -91 2169 -91 
Q 1331 -91 842 396 
Q 353 884 353 1716 
Q 353 2575 817 3079 
Q 1281 3584 2069 3584 
Q 2775 3584 3186 3129 
Q 3597 2675 3597 1894 
z
M 3022 2063 
Q 3016 2534 2758 2815 
Q 2500 3097 2075 3097 
Q 1594 3097 1305 2825 
Q 1016 2553 972 2059 
L 3022 2063 
z
" transform="scale(0.015625)"/>
      </defs>
      <use xlink:href="#DejaVuSans-54"/>
      <use xlink:href="#DejaVuSans-6f" transform="translate(44.083984 0)"/>
      <use xlink:href="#DejaVuSans-74" transform="translate(105.265625 0)"/>
      <use xlink:href="#DejaVuSans-61" transform="translate(144.474609 0)"/>
      <use xlink:href="#DejaVuSans-6c" transform="translate(205.753906 0)"/>
      <use xlink:href="#DejaVuSans-50" transform="translate(233.537109 0)"/>
      <use xlink:href="#DejaVuSans-72" transform="translate(292.089844 0)"/>
      <use xlink:href="#DejaVuSans-69" transform="translate(333.203125 0)"/>
      <use xlink:href="#DejaVuSans-63" transform="translate(360.986328 0)"/>
      <use xlink:href="#DejaVuSans-65" transform="translate(415.966797 0)"/>
     </g>
    </g>
   </g>
   <g id="patch_3">
    <path d="M 47.72 390.04 
L 47.72 26.88 
" style="fill: none; stroke: #000000; stroke-width: 0.8; stroke-linejoin: miter; stroke-linecap: square"/>
   </g>
   <g id="patch_4">
    <path d="M 699.705 390.04 
L 699.705 26.88 
" style="fill: none; stroke: #000000; stroke-width: 0.8; stroke-linejoin: miter; stroke-linecap: square"/>
   </g>
   <g id="patch_5">
    <path d="M 47.72 390.04 
L 699.705 390.04 
" style="fill: none; stroke: #000000; stroke-width: 0.8; stroke-linejoin: miter; stroke-linecap: square"/>
   </g>
   <g id="patch_6">
    <path d="M 47.72 26.88 
L 699.705 26.88 
" style="fill: none; stroke: #000000; stroke-width: 0.8; stroke-linejoin: miter; stroke-linecap: square"/>
   </g>
   <g id="text_14">
    <!-- claude-Opus-4.1 -->
    <g transform="translate(610.550211 52.435133) scale(0.1 -0.1)">
     <defs>
      <path id="DejaVuSans-64" d="M 2906 2969 
L 2906 4863 
L 3481 4863 
L 3481 0 
L 2906 0 
L 2906 525 
Q 2725 213 2448 61 
Q 2172 -91 1784 -91 
Q 1150 -91 751 415 
Q 353 922 353 1747 
Q 353 2572 751 3078 
Q 1150 3584 1784 3584 
Q 2172 3584 2448 3432 
Q 2725 3281 2906 2969 
z
M 947 1747 
Q 947 1113 1208 752 
Q 1469 391 1925 391 
Q 2381 391 2643 752 
Q 2906 1113 2906 1747 
Q 2906 2381 2643 2742 
Q 2381 3103 1925 3103 
Q 1469 3103 1208 2742 
Q 947 2381 947 1747 
z
" transform="scale(0.015625)"/>
      <path id="DejaVuSans-2d" d="M 313 2009 
L 1997 2009 
L 1997 1497 
L 313 1497 
L 313 2009 
z
" transform="scale(0.015625)"/>
      <path id="DejaVuSans-4f" d="M 2522 4238 
Q 1834 4238 1429 3725 
Q 1025 3213 1025 2328 
Q 1025 1447 1429 934 
Q 1834 422 2522 422 
Q 3209 422 3611 934 
Q 4013 1447 4013 2328 
Q 4013 3213 3611 3725 
Q 3209 4238 2522 4238 
z
M 2522 4750 
Q 3503 4750 4090 4092 
Q 4678 3434 4678 2328 
Q 4678 1225 4090 567 
Q 3503 -91 2522 -91 
Q 1538 -91 948 565 
Q 359 1222 359 2328 
Q 359 3434 948 4092 
Q 1538 4750 2522 4750 
z
" transform="scale(0.015625)"/>
      <path id="DejaVuSans-70" d="M 1159 525 
L 1159 -1331 
L 581 -1331 
L 581 3500 
L 1159 3500 
L 1159 2969 
Q 1341 3281 1617 3432 
Q 1894 3584 2278 3584 
Q 2916 3584 3314 3078 
Q 3713 2572 3713 1747 
Q 3713 922 3314 415 
Q 2916 -91 2278 -91 
Q 1894 -91 1617 61 
Q 1341 213 1159 525 
z
M 3116 1747 
Q 3116 2381 2855 2742 
Q 2594 3103 2138 3103 
Q 1681 3103 1420 2742 
Q 1159 2381 1159 1747 
Q 1159 1113 1420 752 
Q 1681 391 2138 391 
Q 2594 391 2855 752 
Q 3116 1113 3116 1747 
z
" transform="scale(0.015625)"/>
      <path id="DejaVuSans-73" d="M 2834 3397 
L 2834 2853 
Q 2591 2978 2328 3040 
Q 2066 3103 1784 3103 
Q 1356 3103 1142 2972 
Q 928 2841 928 2578 
Q 928 2378 1081 2264 
Q 1234 2150 1697 2047 
L 1894 2003 
Q 2506 1872 2764 1633 
Q 3022 1394 3022 966 
Q 3022 478 2636 193 
Q 2250 -91 1575 -91 
Q 1294 -91 989 -36 
Q 684 19 347 128 
L 347 722 
Q 666 556 975 473 
Q 1284 391 1588 391 
Q 1994 391 2212 530 
Q 2431 669 2431 922 
Q 2431 1156 2273 1281 
Q 2116 1406 1581 1522 
L 1381 1569 
Q 847 1681 609 1914 
Q 372 2147 372 2553 
Q 372 3047 722 3315 
Q 1072 3584 1716 3584 
Q 2034 3584 2315 3537 
Q 2597 3491 2834 3397 
z
" transform="scale(0.015625)"/>
     </defs>
     <use xlink:href="#DejaVuSans-63"/>
     <use xlink:href="#DejaVuSans-6c" transform="translate(54.980469 0)"/>
     <use xlink:href="#DejaVuSans-61" transform="translate(82.763672 0)"/>
     <use xlink:href="#DejaVuSans-75" transform="translate(144.042969 0)"/>
     <use xlink:href="#DejaVuSans-64" transform="translate(207.421875 0)"/>
     <use xlink:href="#DejaVuSans-65" transform="translate(270.898438 0)"/>
     <use xlink:href="#DejaVuSans-2d" transform="translate(332.421875 0)"/>
     <use xlink:href="#DejaVuSans-4f" transform="translate(371.255859 0)"/>
     <use xlink:href="#DejaVuSans-70" transform="translate(449.966797 0)"/>
     <use xlink:href="#DejaVuSans-75" transform="translate(513.443359 0)"/>
     <use xlink:href="#DejaVuSans-73" transform="translate(576.822266 0)"/>
     <use xlink:href="#DejaVuSans-2d" transform="translate(628.921875 0)"/>
     <use xlink:href="#DejaVuSans-34" transform="translate(665.005859 0)"/>
     <use xlink:href="#DejaVuSans-2e" transform="translate(728.628906 0)"/>
     <use xlink:href="#DejaVuSans-31" transform="translate(760.416016 0)"/>
    </g>
   </g>
   <g id="text_15">
    <!-- claude-haiku-3.5 -->
    <g transform="translate(369.718544 344.902602) scale(0.1 -0.1)">
     <defs>
      <path id="DejaVuSans-68" d="M 3513 2113 
L 3513 0 
L 2938 0 
L 2938 2094 
Q 2938 2591 2744 2837 
Q 2550 3084 2163 3084 
Q 1697 3084 1428 2787 
Q 1159 2491 1159 1978 
L 1159 0 
L 581 0 
L 581 4863 
L 1159 4863 
L 1159 2956 
Q 1366 3272 1645 3428 
Q 1925 3584 2291 3584 
Q 2894 3584 3203 3211 
Q 3513 2838 3513 2113 
z
" transform="scale(0.015625)"/>
      <path id="DejaVuSans-6b" d="M 581 4863 
L 1159 4863 
L 1159 1991 
L 2875 3500 
L 3609 3500 
L 1753 1863 
L 3688 0 
L 2938 0 
L 1159 1709 
L 1159 0 
L 581 0 
L 581 4863 
z
" transform="scale(0.015625)"/>
      <path id="DejaVuSans-35" d="M 691 4666 
L 3169 4666 
L 3169 4134 
L 1269 4134 
L 1269 2991 
Q 1406 3038 1543 3061 
Q 1681 3084 1819 3084 
Q 2600 3084 3056 2656 
Q 3513 2228 3513 1497 
Q 3513 744 3044 326 
Q 2575 -91 1722 -91 
Q 1428 -91 1123 -41 
Q 819 9 494 109 
L 494 744 
Q 775 591 1075 516 
Q 1375 441 1709 441 
Q 2250 441 2565 725 
Q 2881 1009 2881 1497 
Q 2881 1984 2565 2268 
Q 2250 2553 1709 2553 
Q 1456 2553 1204 2497 
Q 953 2441 691 2322 
L 691 4666 
z
" transform="scale(0.015625)"/>
     </defs>
     <use xlink:href="#DejaVuSans-63"/>
     <use xlink:href="#DejaVuSans-6c" transform="translate(54.980469 0)"/>
     <use xlink:href="#DejaVuSans-61" transform="translate(82.763672 0)"/>
     <use xlink:href="#DejaVuSans-75" transform="translate(144.042969 0)"/>
     <use xlink:href="#DejaVuSans-64" transform="translate(207.421875 0)"/>
     <use xlink:href="#DejaVuSans-65" transform="translate(270.898438 0)"/>
     <use xlink:href="#DejaVuSans-2d" transform="translate(332.421875 0)"/>
     <use xlink:href="#DejaVuSans-68" transform="translate(368.505859 0)"/>
     <use xlink:href="#DejaVuSans-61" transform="translate(431.884766 0)"/>
     <use xlink:href="#DejaVuSans-69" transform="translate(493.164062 0)"/>
     <use xlink:href="#DejaVuSans-6b" transform="translate(520.947266 0)"/>
     <use xlink:href="#DejaVuSans-75" transform="translate(575.732422 0)"/>
     <use xlink:href="#DejaVuSans-2d" transform="translate(639.111328 0)"/>
     <use xlink:href="#DejaVuSans-33" transform="translate(675.195312 0)"/>
     <use xlink:href="#DejaVuSans-2e" transform="translate(738.818359 0)"/>
     <use xlink:href="#DejaVuSans-35" transform="translate(770.605469 0)"/>
    </g>
   </g>
   <g id="text_16">
    <!-- claude-haiku-3 -->
    <g transform="translate(68.827072 380.222405) scale(0.1 -0.1)">
     <use xlink:href="#DejaVuSans-63"/>
     <use xlink:href="#DejaVuSans-6c" transform="translate(54.980469 0)"/>
     <use xlink:href="#DejaVuSans-61" transform="translate(82.763672 0)"/>
     <use xlink:href="#DejaVuSans-75" transform="translate(144.042969 0)"/>
     <use xlink:href="#DejaVuSans-64" transform="translate(207.421875 0)"/>
     <use xlink:href="#DejaVuSans-65" transform="translate(270.898438 0)"/>
     <use xlink:href="#DejaVuSans-2d" transform="translate(332.421875 0)"/>
     <use xlink:href="#DejaVuSans-68" transform="translate(368.505859 0)"/>
     <use xlink:href="#DejaVuSans-61" transform="translate(431.884766 0)"/>
     <use xlink:href="#DejaVuSans-69" transform="translate(493.164062 0)"/>
     <use xlink:href="#DejaVuSans-6b" transform="translate(520.947266 0)"/>
     <use xlink:href="#DejaVuSans-75" transform="translate(575.732422 0)"/>
     <use xlink:href="#DejaVuSans-2d" transform="translate(639.111328 0)"/>
     <use xlink:href="#DejaVuSans-33" transform="translate(675.195312 0)"/>
    </g>
   </g>
   <g id="text_17">
    <!-- claude-sonnet-4.5 -->
    <g transform="translate(601.906033 319.733814) scale(0.1 -0.1)">
     <defs>
      <path id="DejaVuSans-6e" d="M 3513 2113 
L 3513 0 
L 2938 0 
L 2938 2094 
Q 2938 2591 2744 2837 
Q 2550 3084 2163 3084 
Q 1697 3084 1428 2787 
Q 1159 2491 1159 1978 
L 1159 0 
L 581 0 
L 581 3500 
L 1159 3500 
L 1159 2956 
Q 1366 3272 1645 3428 
Q 1925 3584 2291 3584 
Q 2894 3584 3203 3211 
Q 3513 2838 3513 2113 
z
" transform="scale(0.015625)"/>
     </defs>
     <use xlink:href="#DejaVuSans-63"/>
     <use xlink:href="#DejaVuSans-6c" transform="translate(54.980469 0)"/>
     <use xlink:href="#DejaVuSans-61" transform="translate(82.763672 0)"/>
     <use xlink:href="#DejaVuSans-75" transform="translate(144.042969 0)"/>
     <use xlink:href="#DejaVuSans-64" transform="translate(207.421875 0)"/>
     <use xlink:href="#DejaVuSans-65" transform="translate(270.898438 0)"/>
     <use xlink:href="#DejaVuSans-2d" transform="translate(332.421875 0)"/>
     <use xlink:href="#DejaVuSans-73" transform="translate(368.505859 0)"/>
     <use xlink:href="#DejaVuSans-6f" transform="translate(420.605469 0)"/>
     <use xlink:href="#DejaVuSans-6e" transform="translate(481.787109 0)"/>
     <use xlink:href="#DejaVuSans-6e" transform="translate(545.166016 0)"/>
     <use xlink:href="#DejaVuSans-65" transform="translate(608.544922 0)"/>
     <use xlink:href="#DejaVuSans-74" transform="translate(670.068359 0)"/>
     <use xlink:href="#DejaVuSans-2d" transform="translate(709.277344 0)"/>
     <use xlink:href="#DejaVuSans-34" transform="translate(745.361328 0)"/>
     <use xlink:href="#DejaVuSans-2e" transform="translate(808.984375 0)"/>
     <use xlink:href="#DejaVuSans-35" transform="translate(840.771484 0)"/>
    </g>
   </g>
   <g id="text_18">
    <!-- claude-sonnet-4 -->
    <g transform="translate(612.197186 295.751065) scale(0.1 -0.1)">
     <use xlink:href="#DejaVuSans-63"/>
     <use xlink:href="#DejaVuSans-6c" transform="translate(54.980469 0)"/>
     <use xlink:href="#DejaVuSans-61" transform="translate(82.763672 0)"/>
     <use xlink:href="#DejaVuSans-75" transform="translate(144.042969 0)"/>
     <use xlink:href="#DejaVuSans-64" transform="translate(207.421875 0)"/>
     <use xlink:href="#DejaVuSans-65" transform="translate(270.898438 0)"/>
     <use xlink:href="#DejaVuSans-2d" transform="translate(332.421875 0)"/>
     <use xlink:href="#DejaVuSans-73" transform="translate(368.505859 0)"/>
     <use xlink:href="#DejaVuSans-6f" transform="translate(420.605469 0)"/>
     <use xlink:href="#DejaVuSans-6e" transform="translate(481.787109 0)"/>
     <use xlink:href="#DejaVuSans-6e" transform="translate(545.166016 0)"/>
     <use xlink:href="#DejaVuSans-65" transform="translate(608.544922 0)"/>
     <use xlink:href="#DejaVuSans-74" transform="translate(670.068359 0)"/>
     <use xlink:href="#DejaVuSans-2d" transform="translate(709.277344 0)"/>
     <use xlink:href="#DejaVuSans-34" transform="translate(745.361328 0)"/>
    </g>
   </g>
   <g id="text_19">
    <!-- gemini-2.0-flash-lite -->
    <g transform="translate(338.032938 383.366648) scale(0.1 -0.1)">
     <defs>
      <path id="DejaVuSans-67" d="M 2906 1791 
Q 2906 2416 2648 2759 
Q 2391 3103 1925 3103 
Q 1463 3103 1205 2759 
Q 947 2416 947 1791 
Q 947 1169 1205 825 
Q 1463 481 1925 481 
Q 2391 481 2648 825 
Q 2906 1169 2906 1791 
z
M 3481 434 
Q 3481 -459 3084 -895 
Q 2688 -1331 1869 -1331 
Q 1566 -1331 1297 -1286 
Q 1028 -1241 775 -1147 
L 775 -588 
Q 1028 -725 1275 -790 
Q 1522 -856 1778 -856 
Q 2344 -856 2625 -561 
Q 2906 -266 2906 331 
L 2906 616 
Q 2728 306 2450 153 
Q 2172 0 1784 0 
Q 1141 0 747 490 
Q 353 981 353 1791 
Q 353 2603 747 3093 
Q 1141 3584 1784 3584 
Q 2172 3584 2450 3431 
Q 2728 3278 2906 2969 
L 2906 3500 
L 3481 3500 
L 3481 434 
z
" transform="scale(0.015625)"/>
      <path id="DejaVuSans-6d" d="M 3328 2828 
Q 3544 3216 3844 3400 
Q 4144 3584 4550 3584 
Q 5097 3584 5394 3201 
Q 5691 2819 5691 2113 
L 5691 0 
L 5113 0 
L 5113 2094 
Q 5113 2597 4934 2840 
Q 4756 3084 4391 3084 
Q 3944 3084 3684 2787 
Q 3425 2491 3425 1978 
L 3425 0 
L 2847 0 
L 2847 2094 
Q 2847 2600 2669 2842 
Q 2491 3084 2119 3084 
Q 1678 3084 1418 2786 
Q 1159 2488 1159 1978 
L 1159 0 
L 581 0 
L 581 3500 
L 1159 3500 
L 1159 2956 
Q 1356 3278 1631 3431 
Q 1906 3584 2284 3584 
Q 2666 3584 2933 3390 
Q 3200 3197 3328 2828 
z
" transform="scale(0.015625)"/>
      <path id="DejaVuSans-66" d="M 2375 4863 
L 2375 4384 
L 1825 4384 
Q 1516 4384 1395 4259 
Q 1275 4134 1275 3809 
L 1275 3500 
L 2222 3500 
L 2222 3053 
L 1275 3053 
L 1275 0 
L 697 0 
L 697 3053 
L 147 3053 
L 147 3500 
L 697 3500 
L 697 3744 
Q 697 4328 969 4595 
Q 1241 4863 1831 4863 
L 2375 4863 
z
" transform="scale(0.015625)"/>
     </defs>
     <use xlink:href="#DejaVuSans-67"/>
     <use xlink:href="#DejaVuSans-65" transform="translate(63.476562 0)"/>
     <use xlink:href="#DejaVuSans-6d" transform="translate(125 0)"/>
     <use xlink:href="#DejaVuSans-69" transform="translate(222.412109 0)"/>
     <use xlink:href="#DejaVuSans-6e" transform="translate(250.195312 0)"/>
     <use xlink:href="#DejaVuSans-69" transform="translate(313.574219 0)"/>
     <use xlink:href="#DejaVuSans-2d" transform="translate(341.357422 0)"/>
     <use xlink:href="#DejaVuSans-32" transform="translate(377.441406 0)"/>
     <use xlink:href="#DejaVuSans-2e" transform="translate(441.064453 0)"/>
     <use xlink:href="#DejaVuSans-30" transform="translate(472.851562 0)"/>
     <use xlink:href="#DejaVuSans-2d" transform="translate(536.474609 0)"/>
     <use xlink:href="#DejaVuSans-66" transform="translate(572.558594 0)"/>
     <use xlink:href="#DejaVuSans-6c" transform="translate(607.763672 0)"/>
     <use xlink:href="#DejaVuSans-61" transform="translate(635.546875 0)"/>
     <use xlink:href="#DejaVuSans-73" transform="translate(696.826172 0)"/>
     <use xlink:href="#DejaVuSans-68" transform="translate(748.925781 0)"/>
     <use xlink:href="#DejaVuSans-2d" transform="translate(812.304688 0)"/>
     <use xlink:href="#DejaVuSans-6c" transform="translate(848.388672 0)"/>
     <use xlink:href="#DejaVuSans-69" transform="translate(876.171875 0)"/>
     <use xlink:href="#DejaVuSans-74" transform="translate(903.955078 0)"/>
     <use xlink:href="#DejaVuSans-65" transform="translate(943.164062 0)"/>
    </g>
   </g>
   <g id="text_20">
    <!-- gemini-2.5-flash-lite -->
    <g transform="translate(186.666178 382.580587) scale(0.1 -0.1)">
     <use xlink:href="#DejaVuSans-67"/>
     <use xlink:href="#DejaVuSans-65" transform="translate(63.476562 0)"/>
     <use xlink:href="#DejaVuSans-6d" transform="translate(125 0)"/>
     <use xlink:href="#DejaVuSans-69" transform="translate(222.412109 0)"/>
     <use xlink:href="#DejaVuSans-6e" transform="translate(250.195312 0)"/>
     <use xlink:href="#DejaVuSans-69" transform="translate(313.574219 0)"/>
     <use xlink:href="#DejaVuSans-2d" transform="translate(341.357422 0)"/>
     <use xlink:href="#DejaVuSans-32" transform="translate(377.441406 0)"/>
     <use xlink:href="#DejaVuSans-2e" transform="translate(441.064453 0)"/>
     <use xlink:href="#DejaVuSans-35" transform="translate(472.851562 0)"/>
     <use xlink:href="#DejaVuSans-2d" transform="translate(536.474609 0)"/>
     <use xlink:href="#DejaVuSans-66" transform="translate(572.558594 0)"/>
     <use xlink:href="#DejaVuSans-6c" transform="translate(607.763672 0)"/>
     <use xlink:href="#DejaVuSans-61" transform="translate(635.546875 0)"/>
     <use xlink:href="#DejaVuSans-73" transform="translate(696.826172 0)"/>
     <use xlink:href="#DejaVuSans-68" transform="translate(748.925781 0)"/>
     <use xlink:href="#DejaVuSans-2d" transform="translate(812.304688 0)"/>
     <use xlink:href="#DejaVuSans-6c" transform="translate(848.388672 0)"/>
     <use xlink:href="#DejaVuSans-69" transform="translate(876.171875 0)"/>
     <use xlink:href="#DejaVuSans-74" transform="translate(903.955078 0)"/>
     <use xlink:href="#DejaVuSans-65" transform="translate(943.164062 0)"/>
    </g>
   </g>
   <g id="text_21">
    <!-- gemini-2.5-flash -->
    <g transform="translate(611.822025 382.580587) scale(0.1 -0.1)">
     <use xlink:href="#DejaVuSans-67"/>
     <use xlink:href="#DejaVuSans-65" transform="translate(63.476562 0)"/>
     <use xlink:href="#DejaVuSans-6d" transform="translate(125 0)"/>
     <use xlink:href="#DejaVuSans-69" transform="translate(222.412109 0)"/>
     <use xlink:href="#DejaVuSans-6e" transform="translate(250.195312 0)"/>
     <use xlink:href="#DejaVuSans-69" transform="translate(313.574219 0)"/>
     <use xlink:href="#DejaVuSans-2d" transform="translate(341.357422 0)"/>
     <use xlink:href="#DejaVuSans-32" transform="translate(377.441406 0)"/>
     <use xlink:href="#DejaVuSans-2e" transform="translate(441.064453 0)"/>
     <use xlink:href="#DejaVuSans-35" transform="translate(472.851562 0)"/>
     <use xlink:href="#DejaVuSans-2d" transform="translate(536.474609 0)"/>
     <use xlink:href="#DejaVuSans-66" transform="translate(572.558594 0)"/>
     <use xlink:href="#DejaVuSans-6c" transform="translate(607.763672 0)"/>
     <use xlink:href="#DejaVuSans-61" transform="translate(635.546875 0)"/>
     <use xlink:href="#DejaVuSans-73" transform="translate(696.826172 0)"/>
     <use xlink:href="#DejaVuSans-68" transform="translate(748.925781 0)"/>
    </g>
   </g>
   <g id="text_22">
    <!-- gpt-3.5-turbo -->
    <g transform="translate(132.492422 363.594625) scale(0.1 -0.1)">
     <defs>
      <path id="DejaVuSans-62" d="M 3116 1747 
Q 3116 2381 2855 2742 
Q 2594 3103 2138 3103 
Q 1681 3103 1420 2742 
Q 1159 2381 1159 1747 
Q 1159 1113 1420 752 
Q 1681 391 2138 391 
Q 2594 391 2855 752 
Q 3116 1113 3116 1747 
z
M 1159 2969 
Q 1341 3281 1617 3432 
Q 1894 3584 2278 3584 
Q 2916 3584 3314 3078 
Q 3713 2572 3713 1747 
Q 3713 922 3314 415 
Q 2916 -91 2278 -91 
Q 1894 -91 1617 61 
Q 1341 213 1159 525 
L 1159 0 
L 581 0 
L 581 4863 
L 1159 4863 
L 1159 2969 
z
" transform="scale(0.015625)"/>
     </defs>
     <use xlink:href="#DejaVuSans-67"/>
     <use xlink:href="#DejaVuSans-70" transform="translate(63.476562 0)"/>
     <use xlink:href="#DejaVuSans-74" transform="translate(126.953125 0)"/>
     <use xlink:href="#DejaVuSans-2d" transform="translate(166.162109 0)"/>
     <use xlink:href="#DejaVuSans-33" transform="translate(202.246094 0)"/>
     <use xlink:href="#DejaVuSans-2e" transform="translate(265.869141 0)"/>
     <use xlink:href="#DejaVuSans-35" transform="translate(297.65625 0)"/>
     <use xlink:href="#DejaVuSans-2d" transform="translate(361.279297 0)"/>
     <use xlink:href="#DejaVuSans-74" transform="translate(397.363281 0)"/>
     <use xlink:href="#DejaVuSans-75" transform="translate(436.572266 0)"/>
     <use xlink:href="#DejaVuSans-72" transform="translate(499.951172 0)"/>
     <use xlink:href="#DejaVuSans-62" transform="translate(541.064453 0)"/>
     <use xlink:href="#DejaVuSans-6f" transform="translate(604.541016 0)"/>
    </g>
   </g>
   <g id="text_23">
    <!-- gpt-4-turbo -->
    <g transform="translate(435.633504 293.017843) scale(0.1 -0.1)">
     <use xlink:href="#DejaVuSans-67"/>
     <use xlink:href="#DejaVuSans-70" transform="translate(63.476562 0)"/>
     <use xlink:href="#DejaVuSans-74" transform="translate(126.953125 0)"/>
     <use xlink:href="#DejaVuSans-2d" transform="translate(166.162109 0)"/>
     <use xlink:href="#DejaVuSans-34" transform="translate(202.246094 0)"/>
     <use xlink:href="#DejaVuSans-2d" transform="translate(265.869141 0)"/>
     <use xlink:href="#DejaVuSans-74" transform="translate(301.953125 0)"/>
     <use xlink:href="#DejaVuSans-75" transform="translate(341.162109 0)"/>
     <use xlink:href="#DejaVuSans-72" transform="translate(404.541016 0)"/>
     <use xlink:href="#DejaVuSans-62" transform="translate(445.654297 0)"/>
     <use xlink:href="#DejaVuSans-6f" transform="translate(509.130859 0)"/>
    </g>
   </g>
   <g id="text_24">
    <!-- gpt-4.1-mini -->
    <g transform="translate(462.908457 379.08948) scale(0.1 -0.1)">
     <use xlink:href="#DejaVuSans-67"/>
     <use xlink:href="#DejaVuSans-70" transform="translate(63.476562 0)"/>
     <use xlink:href="#DejaVuSans-74" transform="translate(126.953125 0)"/>
     <use xlink:href="#DejaVuSans-2d" transform="translate(166.162109 0)"/>
     <use xlink:href="#DejaVuSans-34" transform="translate(202.246094 0)"/>
     <use xlink:href="#DejaVuSans-2e" transform="translate(265.869141 0)"/>
     <use xlink:href="#DejaVuSans-31" transform="translate(297.65625 0)"/>
     <use xlink:href="#DejaVuSans-2d" transform="translate(361.279297 0)"/>
     <use xlink:href="#DejaVuSans-6d" transform="translate(397.363281 0)"/>
     <use xlink:href="#DejaVuSans-69" transform="translate(494.775391 0)"/>
     <use xlink:href="#DejaVuSans-6e" transform="translate(522.558594 0)"/>
     <use xlink:href="#DejaVuSans-69" transform="translate(585.9375 0)"/>
    </g>
   </g>
   <g id="text_25">
    <!-- gpt-4.1-nano -->
    <g transform="translate(225.147988 351.298078) scale(0.1 -0.1)">
     <use xlink:href="#DejaVuSans-67"/>
     <use xlink:href="#DejaVuSans-70" transform="translate(63.476562 0)"/>
     <use xlink:href="#DejaVuSans-74" transform="translate(126.953125 0)"/>
     <use xlink:href="#DejaVuSans-2d" transform="translate(166.162109 0)"/>
     <use xlink:href="#DejaVuSans-34" transform="translate(202.246094 0)"/>
     <use xlink:href="#DejaVuSans-2e" transform="translate(265.869141 0)"/>
     <use xlink:href="#DejaVuSans-31" transform="translate(297.65625 0)"/>
     <use xlink:href="#DejaVuSans-2d" transform="translate(361.279297 0)"/>
     <use xlink:href="#DejaVuSans-6e" transform="translate(397.363281 0)"/>
     <use xlink:href="#DejaVuSans-61" transform="translate(460.742188 0)"/>
     <use xlink:href="#DejaVuSans-6e" transform="translate(522.021484 0)"/>
     <use xlink:href="#DejaVuSans-6f" transform="translate(585.400391 0)"/>
    </g>
   </g>
   <g id="text_26">
    <!-- gpt-4.1 -->
    <g transform="translate(499.365561 349.776597) scale(0.1 -0.1)">
     <use xlink:href="#DejaVuSans-67"/>
     <use xlink:href="#DejaVuSans-70" transform="translate(63.476562 0)"/>
     <use xlink:href="#DejaVuSans-74" transform="translate(126.953125 0)"/>
     <use xlink:href="#DejaVuSans-2d" transform="translate(166.162109 0)"/>
     <use xlink:href="#DejaVuSans-34" transform="translate(202.246094 0)"/>
     <use xlink:href="#DejaVuSans-2e" transform="translate(265.869141 0)"/>
     <use xlink:href="#DejaVuSans-31" transform="translate(297.65625 0)"/>
    </g>
   </g>
   <g id="text_27">
    <!-- gpt-4o-mini -->
    <g transform="translate(265.144425 365.899882) scale(0.1 -0.1)">
     <use xlink:href="#DejaVuSans-67"/>
     <use xlink:href="#DejaVuSans-70" transform="translate(63.476562 0)"/>
     <use xlink:href="#DejaVuSans-74" transform="translate(126.953125 0)"/>
     <use xlink:href="#DejaVuSans-2d" transform="translate(166.162109 0)"/>
     <use xlink:href="#DejaVuSans-34" transform="translate(202.246094 0)"/>
     <use xlink:href="#DejaVuSans-6f" transform="translate(265.869141 0)"/>
     <use xlink:href="#DejaVuSans-2d" transform="translate(328.925781 0)"/>
     <use xlink:href="#DejaVuSans-6d" transform="translate(365.009766 0)"/>
     <use xlink:href="#DejaVuSans-69" transform="translate(462.421875 0)"/>
     <use xlink:href="#DejaVuSans-6e" transform="translate(490.205078 0)"/>
     <use xlink:href="#DejaVuSans-69" transform="translate(553.583984 0)"/>
    </g>
   </g>
   <g id="text_28">
    <!-- gpt-4o -->
    <g transform="translate(551.552757 346.418372) scale(0.1 -0.1)">
     <use xlink:href="#DejaVuSans-67"/>
     <use xlink:href="#DejaVuSans-70" transform="translate(63.476562 0)"/>
     <use xlink:href="#DejaVuSans-74" transform="translate(126.953125 0)"/>
     <use xlink:href="#DejaVuSans-2d" transform="translate(166.162109 0)"/>
     <use xlink:href="#DejaVuSans-34" transform="translate(202.246094 0)"/>
     <use xlink:href="#DejaVuSans-6f" transform="translate(265.869141 0)"/>
    </g>
   </g>
   <g id="text_29">
    <!-- gpt-5-chat -->
    <g transform="translate(551.96129 369.217557) scale(0.1 -0.1)">
     <use xlink:href="#DejaVuSans-67"/>
     <use xlink:href="#DejaVuSans-70" transform="translate(63.476562 0)"/>
     <use xlink:href="#DejaVuSans-74" transform="translate(126.953125 0)"/>
     <use xlink:href="#DejaVuSans-2d" transform="translate(166.162109 0)"/>
     <use xlink:href="#DejaVuSans-35" transform="translate(202.246094 0)"/>
     <use xlink:href="#DejaVuSans-2d" transform="translate(265.869141 0)"/>
     <use xlink:href="#DejaVuSans-63" transform="translate(301.953125 0)"/>
     <use xlink:href="#DejaVuSans-68" transform="translate(356.933594 0)"/>
     <use xlink:href="#DejaVuSans-61" transform="translate(420.3125 0)"/>
     <use xlink:href="#DejaVuSans-74" transform="translate(481.591797 0)"/>
    </g>
   </g>
   <g id="text_30">
    <!-- gpt-5-codex -->
    <g transform="translate(634.65819 334.925782) scale(0.1 -0.1)">
     <defs>
      <path id="DejaVuSans-78" d="M 3513 3500 
L 2247 1797 
L 3578 0 
L 2900 0 
L 1881 1375 
L 863 0 
L 184 0 
L 1544 1831 
L 300 3500 
L 978 3500 
L 1906 2253 
L 2834 3500 
L 3513 3500 
z
" transform="scale(0.015625)"/>
     </defs>
     <use xlink:href="#DejaVuSans-67"/>
     <use xlink:href="#DejaVuSans-70" transform="translate(63.476562 0)"/>
     <use xlink:href="#DejaVuSans-74" transform="translate(126.953125 0)"/>
     <use xlink:href="#DejaVuSans-2d" transform="translate(166.162109 0)"/>
     <use xlink:href="#DejaVuSans-35" transform="translate(202.246094 0)"/>
     <use xlink:href="#DejaVuSans-2d" transform="translate(265.869141 0)"/>
     <use xlink:href="#DejaVuSans-63" transform="translate(301.953125 0)"/>
     <use xlink:href="#DejaVuSans-6f" transform="translate(356.933594 0)"/>
     <use xlink:href="#DejaVuSans-64" transform="translate(418.115234 0)"/>
     <use xlink:href="#DejaVuSans-65" transform="translate(481.591797 0)"/>
     <use xlink:href="#DejaVuSans-78" transform="translate(541.365234 0)"/>
    </g>
   </g>
   <g id="text_31">
    <!-- gpt-5-mini -->
    <g transform="translate(469.641735 328.260163) scale(0.1 -0.1)">
     <use xlink:href="#DejaVuSans-67"/>
     <use xlink:href="#DejaVuSans-70" transform="translate(63.476562 0)"/>
     <use xlink:href="#DejaVuSans-74" transform="translate(126.953125 0)"/>
     <use xlink:href="#DejaVuSans-2d" transform="translate(166.162109 0)"/>
     <use xlink:href="#DejaVuSans-35" transform="translate(202.246094 0)"/>
     <use xlink:href="#DejaVuSans-2d" transform="translate(265.869141 0)"/>
     <use xlink:href="#DejaVuSans-6d" transform="translate(301.953125 0)"/>
     <use xlink:href="#DejaVuSans-69" transform="translate(399.365234 0)"/>
     <use xlink:href="#DejaVuSans-6e" transform="translate(427.148438 0)"/>
     <use xlink:href="#DejaVuSans-69" transform="translate(490.527344 0)"/>
    </g>
   </g>
   <g id="text_32">
    <!-- gpt-5-nano -->
    <g transform="translate(342.648611 360.57089) scale(0.1 -0.1)">
     <use xlink:href="#DejaVuSans-67"/>
     <use xlink:href="#DejaVuSans-70" transform="translate(63.476562 0)"/>
     <use xlink:href="#DejaVuSans-74" transform="translate(126.953125 0)"/>
     <use xlink:href="#DejaVuSans-2d" transform="translate(166.162109 0)"/>
     <use xlink:href="#DejaVuSans-35" transform="translate(202.246094 0)"/>
     <use xlink:href="#DejaVuSans-2d" transform="translate(265.869141 0)"/>
     <use xlink:href="#DejaVuSans-6e" transform="translate(301.953125 0)"/>
     <use xlink:href="#DejaVuSans-61" transform="translate(365.332031 0)"/>
     <use xlink:href="#DejaVuSans-6e" transform="translate(426.611328 0)"/>
     <use xlink:href="#DejaVuSans-6f" transform="translate(489.990234 0)"/>
    </g>
   </g>
   <g id="text_33">
    <!-- gpt-5 -->
    <g transform="translate(446.649024 357.744194) scale(0.1 -0.1)">
     <use xlink:href="#DejaVuSans-67"/>
     <use xlink:href="#DejaVuSans-70" transform="translate(63.476562 0)"/>
     <use xlink:href="#DejaVuSans-74" transform="translate(126.953125 0)"/>
     <use xlink:href="#DejaVuSans-2d" transform="translate(166.162109 0)"/>
     <use xlink:href="#DejaVuSans-35" transform="translate(202.246094 0)"/>
    </g>
   </g>
   <g id="patch_7">
    <path d="M 410.249012 343.758717 
Q 403.437187 353.080794 396.625363 362.402871 
" style="fill: none; stroke: #4b5563; stroke-width: 0.6; stroke-linecap: round"/>
   </g>
   <g id="patch_8">
    <path d="M 107.759246 377.30642 
Q 141.939699 374.618552 176.120152 371.930685 
" style="fill: none; stroke: #4b5563; stroke-width: 0.6; stroke-linecap: round"/>
   </g>
   <g id="patch_9">
    <path d="M 653.196397 294.916924 
Q 654.443362 299.281899 655.690327 303.646874 
" style="fill: none; stroke: #4b5563; stroke-width: 0.6; stroke-linecap: round"/>
   </g>
   <g id="patch_10">
    <path d="M 386.303502 380.220378 
Q 370.124121 377.0303 353.94474 373.840222 
" style="fill: none; stroke: #4b5563; stroke-width: 0.6; stroke-linecap: round"/>
   </g>
   <g id="patch_11">
    <path d="M 238.897309 379.70785 
Q 294.439423 376.557028 349.981538 373.406205 
" style="fill: none; stroke: #4b5563; stroke-width: 0.6; stroke-linecap: round"/>
   </g>
   <g id="patch_12">
    <path d="M 163.882316 361.472319 
Q 150.214191 366.064801 136.546066 370.657282 
" style="fill: none; stroke: #4b5563; stroke-width: 0.6; stroke-linecap: round"/>
   </g>
   <g id="patch_13">
    <path d="M 462.223613 290.798213 
Q 451.530602 293.79559 440.837592 296.792967 
" style="fill: none; stroke: #4b5563; stroke-width: 0.6; stroke-linecap: round"/>
   </g>
   <g id="patch_14">
    <path d="M 491.601088 376.158251 
Q 466.25138 373.971844 440.901672 371.785437 
" style="fill: none; stroke: #4b5563; stroke-width: 0.6; stroke-linecap: round"/>
   </g>
   <g id="patch_15">
    <path d="M 258.060095 350.451584 
Q 261.262895 360.956681 264.465696 371.461777 
" style="fill: none; stroke: #4b5563; stroke-width: 0.6; stroke-linecap: round"/>
   </g>
   <g id="patch_16">
    <path d="M 518.392895 348.771555 
Q 521.636565 354.679003 524.880236 360.58645 
" style="fill: none; stroke: #4b5563; stroke-width: 0.6; stroke-linecap: round"/>
   </g>
   <g id="patch_17">
    <path d="M 295.856939 364.280345 
Q 301.365047 368.098026 306.873155 371.915708 
" style="fill: none; stroke: #4b5563; stroke-width: 0.6; stroke-linecap: round"/>
   </g>
   <g id="patch_18">
    <path d="M 566.03428 344.358507 
Q 546.874172 351.519579 527.714065 358.680652 
" style="fill: none; stroke: #4b5563; stroke-width: 0.6; stroke-linecap: round"/>
   </g>
   <g id="patch_19">
    <path d="M 576.005066 366.398448 
Q 551.923342 365.677785 527.841617 364.957123 
" style="fill: none; stroke: #4b5563; stroke-width: 0.6; stroke-linecap: round"/>
   </g>
   <g id="patch_20">
    <path d="M 493.744873 326.342526 
Q 445.502562 348.756413 397.260251 371.170301 
" style="fill: none; stroke: #4b5563; stroke-width: 0.6; stroke-linecap: round"/>
   </g>
   <g id="patch_21">
    <path d="M 371.90474 358.868936 
Q 382.825885 365.671882 393.747031 372.474829 
" style="fill: none; stroke: #4b5563; stroke-width: 0.6; stroke-linecap: round"/>
   </g>
   <g id="patch_22">
    <path d="M 458.117385 355.803504 
Q 449.427386 359.700959 440.737388 363.598413 
" style="fill: none; stroke: #4b5563; stroke-width: 0.6; stroke-linecap: round"/>
   </g>
   <g id="text_34">
    <!-- Accuracy vs Price (All Models) -->
    <g transform="translate(284.115625 20.88) scale(0.12 -0.12)">
     <defs>
      <path id="DejaVuSans-76" d="M 191 3500 
L 800 3500 
L 1894 563 
L 2988 3500 
L 3597 3500 
L 2284 0 
L 1503 0 
L 191 3500 
z
" transform="scale(0.015625)"/>
      <path id="DejaVuSans-4d" d="M 628 4666 
L 1569 4666 
L 2759 1491 
L 3956 4666 
L 4897 4666 
L 4897 0 
L 4281 0 
L 4281 4097 
L 3078 897 
L 2444 897 
L 1241 4097 
L 1241 0 
L 628 0 
L 628 4666 
z
" transform="scale(0.015625)"/>
     </defs>
     <use xlink:href="#DejaVuSans-41"/>
     <use xlink:href="#DejaVuSans-63" transform="translate(66.658203 0)"/>
     <use xlink:href="#DejaVuSans-63" transform="translate(121.638672 0)"/>
     <use xlink:href="#DejaVuSans-75" transform="translate(176.619141 0)"/>
     <use xlink:href="#DejaVuSans-72" transform="translate(239.998047 0)"/>
     <use xlink:href="#DejaVuSans-61" transform="translate(281.111328 0)"/>
     <use xlink:href="#DejaVuSans-63" transform="translate(342.390625 0)"/>
     <use xlink:href="#DejaVuSans-79" transform="translate(397.371094 0)"/>
     <use xlink:href="#DejaVuSans-20" transform="translate(456.550781 0)"/>
     <use xlink:href="#DejaVuSans-76" transform="translate(488.337891 0)"/>
     <use xlink:href="#DejaVuSans-73" transform="translate(547.517578 0)"/>
     <use xlink:href="#DejaVuSans-20" transform="translate(599.617188 0)"/>
     <use xlink:href="#DejaVuSans-50" transform="translate(631.404297 0)"/>
     <use xlink:href="#DejaVuSans-72" transform="translate(689.957031 0)"/>
     <use xlink:href="#DejaVuSans-69" transform="translate(731.070312 0)"/>
     <use xlink:href="#DejaVuSans-63" transform="translate(758.853516 0)"/>
     <use xlink:href="#DejaVuSans-65" transform="translate(813.833984 0)"/>
     <use xlink:href="#DejaVuSans-20" transform="translate(875.357422 0)"/>
     <use xlink:href="#DejaVuSans-28" transform="translate(907.144531 0)"/>
     <use xlink:href="#DejaVuSans-41" transform="translate(946.158203 0)"/>
     <use xlink:href="#DejaVuSans-6c" transform="translate(1014.566406 0)"/>
     <use xlink:href="#DejaVuSans-6c" transform="translate(1042.349609 0)"/>
     <use xlink:href="#DejaVuSans-20" transform="translate(1070.132812 0)"/>
     <use xlink:href="#DejaVuSans-4d" transform="translate(1101.919922 0)"/>
     <use xlink:href="#DejaVuSans-6f" transform="translate(1188.199219 0)"/>
     <use xlink:href="#DejaVuSans-64" transform="translate(1249.380859 0)"/>
     <use xlink:href="#DejaVuSans-65" transform="translate(1312.857422 0)"/>
     <use xlink:href="#DejaVuSans-6c" transform="translate(1374.380859 0)"/>
     <use xlink:href="#DejaVuSans-73" transform="translate(1402.164062 0)"/>
     <use xlink:href="#DejaVuSans-29" transform="translate(1454.263672 0)"/>
    </g>
   </g>
   <g id="legend_1">
    <g id="patch_23">
     <path d="M 54.72 93.5925 
L 137.605938 93.5925 
Q 139.605938 93.5925 139.605938 91.5925 
L 139.605938 33.88 
Q 139.605938 31.88 137.605938 31.88 
L 54.72 31.88 
Q 52.72 31.88 52.72 33.88 
L 52.72 91.5925 
Q 52.72 93.5925 54.72 93.5925 
z
" style="fill: #ffffff; opacity: 0.8; stroke: #cccccc; stroke-linejoin: miter"/>
    </g>
    <g id="text_35">
     <!-- Model Category -->
     <g transform="translate(56.72 43.478437) scale(0.1 -0.1)">
      <defs>
       <path id="DejaVuSans-43" d="M 4122 4306 
L 4122 3641 
Q 3803 3938 3442 4084 
Q 3081 4231 2675 4231 
Q 1875 4231 1450 3742 
Q 1025 3253 1025 2328 
Q 1025 1406 1450 917 
Q 1875 428 2675 428 
Q 3081 428 3442 575 
Q 3803 722 4122 1019 
L 4122 359 
Q 3791 134 3420 21 
Q 3050 -91 2638 -91 
Q 1578 -91 968 557 
Q 359 1206 359 2328 
Q 359 3453 968 4101 
Q 1578 4750 2638 4750 
Q 3056 4750 3426 4639 
Q 3797 4528 4122 4306 
z
" transform="scale(0.015625)"/>
      </defs>
      <use xlink:href="#DejaVuSans-4d"/>
      <use xlink:href="#DejaVuSans-6f" transform="translate(86.279297 0)"/>
      <use xlink:href="#DejaVuSans-64" transform="translate(147.460938 0)"/>
      <use xlink:href="#DejaVuSans-65" transform="translate(210.9375 0)"/>
      <use xlink:href="#DejaVuSans-6c" transform="translate(272.460938 0)"/>
      <use xlink:href="#DejaVuSans-20" transform="translate(300.244141 0)"/>
      <use xlink:href="#DejaVuSans-43" transform="translate(332.03125 0)"/>
      <use xlink:href="#DejaVuSans-61" transform="translate(401.855469 0)"/>
      <use xlink:href="#DejaVuSans-74" transform="translate(463.134766 0)"/>
      <use xlink:href="#DejaVuSans-65" transform="translate(502.34375 0)"/>
      <use xlink:href="#DejaVuSans-67" transform="translate(563.867188 0)"/>
      <use xlink:href="#DejaVuSans-6f" transform="translate(627.34375 0)"/>
      <use xlink:href="#DejaVuSans-72" transform="translate(688.525391 0)"/>
      <use xlink:href="#DejaVuSans-79" transform="translate(729.638672 0)"/>
     </g>
    </g>
    <g id="line2d_23">
     <defs>
      <path id="mce60d10ddf" d="M 0 3 
C 0.795609 3 1.55874 2.683901 2.12132 2.12132 
C 2.683901 1.55874 3 0.795609 3 0 
C 3 -0.795609 2.683901 -1.55874 2.12132 -2.12132 
C 1.55874 -2.683901 0.795609 -3 0 -3 
C -0.795609 -3 -1.55874 -2.683901 -2.12132 -2.12132 
C -2.683901 -1.55874 -3 -0.795609 -3 0 
C -3 0.795609 -2.683901 1.55874 -2.12132 2.12132 
C -1.55874 2.683901 -0.795609 3 0 3 
z
" style="stroke: #ffffff; stroke-width: 0.5"/>
     </defs>
     <g>
      <use xlink:href="#mce60d10ddf" x="74.395" y="54.656563" style="fill: #ff8c00; stroke: #ffffff; stroke-width: 0.5"/>
     </g>
    </g>
    <g id="text_36">
     <!-- Claude -->
     <g transform="translate(92.395 58.156563) scale(0.1 -0.1)">
      <use xlink:href="#DejaVuSans-43"/>
      <use xlink:href="#DejaVuSans-6c" transform="translate(69.824219 0)"/>
      <use xlink:href="#DejaVuSans-61" transform="translate(97.607422 0)"/>
      <use xlink:href="#DejaVuSans-75" transform="translate(158.886719 0)"/>
      <use xlink:href="#DejaVuSans-64" transform="translate(222.265625 0)"/>
      <use xlink:href="#DejaVuSans-65" transform="translate(285.742188 0)"/>
     </g>
    </g>
    <g id="line2d_24">
     <defs>
      <path id="mdca08d37d3" d="M 0 3 
C 0.795609 3 1.55874 2.683901 2.12132 2.12132 
C 2.683901 1.55874 3 0.795609 3 0 
C 3 -0.795609 2.683901 -1.55874 2.12132 -2.12132 
C 1.55874 -2.683901 0.795609 -3 0 -3 
C -0.795609 -3 -1.55874 -2.683901 -2.12132 -2.12132 
C -2.683901 -1.55874 -3 -0.795609 -3 0 
C -3 0.795609 -2.683901 1.55874 -2.12132 2.12132 
C -1.55874 2.683901 -0.795609 3 0 3 
z
" style="stroke: #ffffff; stroke-width: 0.5"/>
     </defs>
     <g>
      <use xlink:href="#mdca08d37d3" x="74.395" y="69.334688" style="stroke: #ffffff; stroke-width: 0.5"/>
     </g>
    </g>
    <g id="text_37">
     <!-- GPT -->
     <g transform="translate(92.395 72.834688) scale(0.1 -0.1)">
      <defs>
       <path id="DejaVuSans-47" d="M 3809 666 
L 3809 1919 
L 2778 1919 
L 2778 2438 
L 4434 2438 
L 4434 434 
Q 4069 175 3628 42 
Q 3188 -91 2688 -91 
Q 1594 -91 976 548 
Q 359 1188 359 2328 
Q 359 3472 976 4111 
Q 1594 4750 2688 4750 
Q 3144 4750 3555 4637 
Q 3966 4525 4313 4306 
L 4313 3634 
Q 3963 3931 3569 4081 
Q 3175 4231 2741 4231 
Q 1884 4231 1454 3753 
Q 1025 3275 1025 2328 
Q 1025 1384 1454 906 
Q 1884 428 2741 428 
Q 3075 428 3337 486 
Q 3600 544 3809 666 
z
" transform="scale(0.015625)"/>
      </defs>
      <use xlink:href="#DejaVuSans-47"/>
      <use xlink:href="#DejaVuSans-50" transform="translate(77.490234 0)"/>
      <use xlink:href="#DejaVuSans-54" transform="translate(137.792969 0)"/>
     </g>
    </g>
    <g id="line2d_25">
     <defs>
      <path id="m069a45c1e4" d="M 0 3 
C 0.795609 3 1.55874 2.683901 2.12132 2.12132 
C 2.683901 1.55874 3 0.795609 3 0 
C 3 -0.795609 2.683901 -1.55874 2.12132 -2.12132 
C 1.55874 -2.683901 0.795609 -3 0 -3 
C -0.795609 -3 -1.55874 -2.683901 -2.12132 -2.12132 
C -2.683901 -1.55874 -3 -0.795609 -3 0 
C -3 0.795609 -2.683901 1.55874 -2.12132 2.12132 
C -1.55874 2.683901 -0.795609 3 0 3 
z
" style="stroke: #ffffff; stroke-width: 0.5"/>
     </defs>
     <g>
      <use xlink:href="#m069a45c1e4" x="74.395" y="84.012812" style="fill: #0015ff; stroke: #ffffff; stroke-width: 0.5"/>
     </g>
    </g>
    <g id="text_38">
     <!-- Gemini -->
     <g transform="translate(92.395 87.512812) scale(0.1 -0.1)">
      <use xlink:href="#DejaVuSans-47"/>
      <use xlink:href="#DejaVuSans-65" transform="translate(77.490234 0)"/>
      <use xlink:href="#DejaVuSans-6d" transform="translate(139.013672 0)"/>
      <use xlink:href="#DejaVuSans-69" transform="translate(236.425781 0)"/>
      <use xlink:href="#DejaVuSans-6e" transform="translate(264.208984 0)"/>
      <use xlink:href="#DejaVuSans-69" transform="translate(327.587891 0)"/>
     </g>
    </g>
   </g>
  </g>
 </g>
 <defs>
  <clipPath id="pc67dd9abd8">
   <rect x="47.72" y="26.88" width="651.985" height="363.16"/>
  </clipPath>
 </defs>
</svg>
